<svg id="Layer_2" data-name="Layer 2" xmlns="http://www.w3.org/2000/svg" viewBox="0 0 283.46 115.25"><title>kafkus_final</title><path d="M63.71,72.87H46.41L32.88,89.4V49.55a25.35,25.35,0,1,0-15.07,0V114H32.88V95.9L48.64,114H65.93L47.35,92.74ZM25.35,15.41a9.94,9.94,0,1,1-9.94,9.94A9.94,9.94,0,0,1,25.35,15.41Z"/><path d="M102.38,76.16Q96.52,71.59,85,71.58a51.59,51.59,0,0,0-9.25.82,29.52,29.52,0,0,0-7.19,2.1V84.86a32.23,32.23,0,0,1,13.78-2.92c7.19,0,10.79,2.21,10.79,6.6v.86a24.71,24.71,0,0,0-5.74-1.93,30.92,30.92,0,0,0-6.68-.73c-5.7,0-10.09,1.24-13.14,3.72S63,96.5,63,101.13q0,6.68,4.75,10.4t12.46,3.72A23.25,23.25,0,0,0,88.29,114a16.18,16.18,0,0,0,5.82-3.51V114h14.13V89Q108.24,80.75,102.38,76.16Zm-9.21,26a8.46,8.46,0,0,1-3.51,2.79,11.74,11.74,0,0,1-5,1.07,7.12,7.12,0,0,1-4.58-1.29,4.37,4.37,0,0,1-1.58-3.59,4.52,4.52,0,0,1,1.62-3.77,7.31,7.31,0,0,1,4.63-1.28,14.61,14.61,0,0,1,8.39,2.48Z"/><path d="M120.25,54.85Q115,59.43,115,67.73v5.14h-5.74V83.31H115V114h15.07V83.31h9.5V72.87h-9.5V69q0-3.34,1.62-4.88c1.09-1,2.77-1.55,5.06-1.55a11.9,11.9,0,0,1,5.39,1.2v-12a20.43,20.43,0,0,0-8.22-1.54Q125.51,50.26,120.25,54.85Z"/><polygon points="191.94 72.87 174.65 72.87 161.12 89.4 161.12 50.69 146.04 50.69 146.04 113.97 161.12 113.97 161.12 95.91 176.87 113.97 194.17 113.97 175.59 92.74 191.94 72.87"/><path d="M224.91,98.13a10.65,10.65,0,0,1-3.94,4,10.45,10.45,0,0,1-5.31,1.37q-6.42,0-6.42-7.1V72.87H194.17V98.13q0,7.71,4.24,12.42t12.71,4.7A21.68,21.68,0,0,0,219,113.8a17.21,17.21,0,0,0,6.42-4.28V114H240V72.87H224.91Z"/><path d="M282.22,96.2A10.74,10.74,0,0,0,278,92a33.67,33.67,0,0,0-8.47-3.26q.42.09-2.31-.6a45.18,45.18,0,0,1-5.83-1.71c-1.08-.46-1.62-1.12-1.62-2a2,2,0,0,1,1.62-1.93,14.64,14.64,0,0,1,4.54-.56,31.45,31.45,0,0,1,7.92,1.12,22.92,22.92,0,0,1,6.81,2.82V75a22.31,22.31,0,0,0-7.41-2.48,49.82,49.82,0,0,0-9.38-1c-6.1,0-10.91,1.11-14.42,3.3s-5.27,5.53-5.27,10a12.12,12.12,0,0,0,1.46,6.25,11.2,11.2,0,0,0,4.45,4.11,44.18,44.18,0,0,0,8.22,3.17c2,.57,3.87,1.1,5.44,1.58a12.47,12.47,0,0,1,3.25,1.37,2,2,0,0,1,.9,1.67,1.69,1.69,0,0,1-1.37,1.71,15.81,15.81,0,0,1-4.37.43,35.07,35.07,0,0,1-9-1.32,34.53,34.53,0,0,1-8.44-3.39v11a27.77,27.77,0,0,0,8.57,2.78,57.32,57.32,0,0,0,10.36,1q9.67,0,14.77-3.46a10.8,10.8,0,0,0,5.09-9.38A13.65,13.65,0,0,0,282.22,96.2Z"/></svg>